<svg xmlns="http://www.w3.org/2000/svg" viewBox="0 0 341.96 160.14"><defs><style>.cls-1{fill:#fff;}</style></defs><g id="Layer_2" data-name="Layer 2"><g id="Layer_1-2" data-name="Layer 1"><polygon class="cls-1" points="187.48 0 187.48 29.48 72.39 56.69 72.39 25.23 187.48 0"/><polygon class="cls-1" points="187.48 39.25 187.48 68.73 72.39 95.95 72.39 64.48 187.48 39.25"/><path class="cls-1" d="M187.48,79.79v30.64h-.57c-18.46,0-53.92-1.43-98.08,11.29q-8.51,2.44-16.44,5.25V106.22Z"/><polygon class="cls-1" points="266.09 47.84 266.09 58.42 187.48 39.25 187.48 29.48 266.09 47.84"/><polygon class="cls-1" points="266.09 87 266.09 97.58 187.48 79.79 187.48 68.67 266.09 87"/><path class="cls-1" d="M342,157.23c-52.88-25.16-98.43-32.75-128.2-35.2-91.08-7.48-170.41,22-209.37,36.46L0,160.14a312.24,312.24,0,0,1,72.39-35.31q7.94-2.67,16.44-5C133,107.67,168.45,109,186.91,109h.57A273.49,273.49,0,0,1,342,157.23Z"/></g></g></svg>